<svg xmlns="http://www.w3.org/2000/svg" viewBox="0 0 100 100" width="100" height="100">
  <!-- Background circle -->
  <circle cx="50" cy="50" r="45" fill="#7d5fff" />
  
  <!-- Buffopotamus head silhouette -->
  <path d="M50 20c-12 0-22 8-22 20 0 10 5 18 12 22 4 2 8 3 10 3 2 0 6-1 10-3 7-4 12-12 12-22 0-12-10-20-22-20z" fill="#a990ff" />
  
  <!-- Ears -->
  <path d="M32 30c-3 2-5 5-5 8s2 6 5 8c1-3 1-5 1-8s0-5-1-8z" fill="#a990ff" />
  <path d="M68 30c3 2 5 5 5 8s-2 6-5 8c-1-3-1-5-1-8s0-5 1-8z" fill="#a990ff" />
  
  <!-- Buffalo horns -->
  <path d="M30 25c-5 3-8 7-8 10s3 7 8 10c0-3 0-7 0-10s0-7 0-10z" fill="#5a3dd6" />
  <path d="M70 25c5 3 8 7 8 10s-3 7-8 10c0-3 0-7 0-10s0-7 0-10z" fill="#5a3dd6" />
  
  <!-- Eyes -->
  <circle cx="38" cy="40" r="3" fill="#333333" />
  <circle cx="62" cy="40" r="3" fill="#333333" />
  
  <!-- Snout -->
  <path d="M42 48c2 5 6 8 8 8s6-3 8-8c-2-2-5-3-8-3s-6 1-8 3z" fill="#5a3dd6" />
  
  <!-- Smile -->
  <path d="M43 55c4 3 10 3 14 0" fill="none" stroke="#333333" stroke-width="2" stroke-linecap="round" />
</svg>